<?xml version="1.0" encoding="UTF-8" standalone="no"?><!-- Generator: Gravit.io --><svg xmlns="http://www.w3.org/2000/svg" xmlns:xlink="http://www.w3.org/1999/xlink" style="isolation:isolate" viewBox="0 0 32 32" width="32pt" height="32pt"><radialGradient id="_rgradient_4" fx="0.5" fy="0.5" cx="0.5" cy="0.5" r="0.5" gradientTransform="matrix(32,0,0,32,0,0)" gradientUnits="userSpaceOnUse"><stop offset="2.9166666666666665%" stop-opacity="0.5" style="stop-color:rgb(4,72,24)"/><stop offset="98.33333333333333%" stop-opacity="0.5" style="stop-color:rgb(51,27,0)"/></radialGradient><circle vector-effect="non-scaling-stroke" cx="16" cy="16" r="16" fill="url(#_rgradient_4)"/><clipPath id="_clipPath_ARdd6Vws6DYd1xsopdPWSXabQqYKHp0I"><circle vector-effect="non-scaling-stroke" cx="16" cy="16" r="16" fill="url(#_rgradient_4)"/></clipPath><g clip-path="url(#_clipPath_ARdd6Vws6DYd1xsopdPWSXabQqYKHp0I)"><mask id="_mask_rJ1esyqXM1d7J3VuS2Myx0TFXOZPUU6A" x="-200%" y="-200%" width="400%" height="400%"><rect x="-200%" y="-200%" width="400%" height="400%" style="fill:white;"/><path d=" M 16.428 18.55 L 16.428 9.62 L 18.573 9.62 L 18.573 22.575 L 16.428 22.575 L 12.069 14.911 L 12.069 10.868 L 16.428 18.55 L 16.428 18.55 Z  M 11.348 22.575 L 9.204 22.575 L 9.204 9.62 L 11.348 9.62 L 11.348 22.575 L 11.348 22.575 Z " fill="black" stroke="none"/></mask><path d=" M 16.428 18.55 L 16.428 9.62 L 18.573 9.62 L 18.573 22.575 L 16.428 22.575 L 12.069 14.911 L 12.069 10.868 L 16.428 18.55 L 16.428 18.55 Z  M 11.348 22.575 L 9.204 22.575 L 9.204 9.62 L 11.348 9.62 L 11.348 22.575 L 11.348 22.575 Z " fill="rgb(4,72,24)"/><path d=" M 16.428 18.55 L 16.428 9.62 L 18.573 9.62 L 18.573 22.575 L 16.428 22.575 L 12.069 14.911 L 12.069 10.868 L 16.428 18.55 L 16.428 18.55 Z  M 11.348 22.575 L 9.204 22.575 L 9.204 9.62 L 11.348 9.62 L 11.348 22.575 L 11.348 22.575 Z " fill="rgb(4,72,24)" mask="url(#_mask_rJ1esyqXM1d7J3VuS2Myx0TFXOZPUU6A)" vector-effect="non-scaling-stroke" stroke-width="0.1" stroke="rgb(0,0,0)" stroke-linejoin="miter" stroke-linecap="square" stroke-miterlimit="3"/><mask id="_mask_VRXop7q1thosEzk1eDBOa9ILUvChvYEF" x="-200%" y="-200%" width="400%" height="400%"><rect x="-200%" y="-200%" width="400%" height="400%" style="fill:white;"/><path d=" M 16.486 22.513 L 16.486 9.558 L 18.596 9.558 L 18.596 22.513 L 16.486 22.513 L 16.486 22.513 Z  M 19.316 9.558 L 20.213 9.558 L 20.213 9.558 Q 21.039 9.558 21.848 9.821 L 21.848 9.821 L 21.848 9.821 Q 22.656 10.085 23.298 10.612 L 23.298 10.612 L 23.298 10.612 Q 23.939 11.14 24.335 11.887 L 24.335 11.887 L 24.335 11.887 Q 24.73 12.634 24.73 13.565 L 24.73 13.565 L 24.73 13.565 Q 24.73 14.55 24.396 15.35 L 24.396 15.35 L 24.396 15.35 Q 24.062 16.149 23.465 16.694 L 23.465 16.694 L 23.465 16.694 Q 22.867 17.239 22.023 17.538 L 22.023 17.538 L 22.023 17.538 Q 21.18 17.837 20.16 17.837 L 20.16 17.837 L 19.316 17.837 L 19.316 16.29 L 20.529 16.29 L 20.529 16.29 Q 20.916 16.29 21.294 16.158 L 21.294 16.158 L 21.294 16.158 Q 21.672 16.026 21.988 15.728 L 21.988 15.728 L 21.988 15.728 Q 22.305 15.429 22.498 14.893 L 22.498 14.893 L 22.498 14.893 Q 22.691 14.356 22.691 13.565 L 22.691 13.565 L 22.691 13.565 Q 22.691 13.249 22.603 12.836 L 22.603 12.836 L 22.603 12.836 Q 22.516 12.423 22.243 12.045 L 22.243 12.045 L 22.243 12.045 Q 21.971 11.667 21.478 11.412 L 21.478 11.412 L 21.478 11.412 Q 20.986 11.157 20.178 11.157 L 20.178 11.157 L 19.316 11.157 L 19.316 9.558 L 19.316 9.558 Z " fill="black" stroke="none"/></mask><path d=" M 16.486 22.513 L 16.486 9.558 L 18.596 9.558 L 18.596 22.513 L 16.486 22.513 L 16.486 22.513 Z  M 19.316 9.558 L 20.213 9.558 L 20.213 9.558 Q 21.039 9.558 21.848 9.821 L 21.848 9.821 L 21.848 9.821 Q 22.656 10.085 23.298 10.612 L 23.298 10.612 L 23.298 10.612 Q 23.939 11.14 24.335 11.887 L 24.335 11.887 L 24.335 11.887 Q 24.73 12.634 24.73 13.565 L 24.73 13.565 L 24.73 13.565 Q 24.73 14.55 24.396 15.35 L 24.396 15.35 L 24.396 15.35 Q 24.062 16.149 23.465 16.694 L 23.465 16.694 L 23.465 16.694 Q 22.867 17.239 22.023 17.538 L 22.023 17.538 L 22.023 17.538 Q 21.18 17.837 20.16 17.837 L 20.16 17.837 L 19.316 17.837 L 19.316 16.29 L 20.529 16.29 L 20.529 16.29 Q 20.916 16.29 21.294 16.158 L 21.294 16.158 L 21.294 16.158 Q 21.672 16.026 21.988 15.728 L 21.988 15.728 L 21.988 15.728 Q 22.305 15.429 22.498 14.893 L 22.498 14.893 L 22.498 14.893 Q 22.691 14.356 22.691 13.565 L 22.691 13.565 L 22.691 13.565 Q 22.691 13.249 22.603 12.836 L 22.603 12.836 L 22.603 12.836 Q 22.516 12.423 22.243 12.045 L 22.243 12.045 L 22.243 12.045 Q 21.971 11.667 21.478 11.412 L 21.478 11.412 L 21.478 11.412 Q 20.986 11.157 20.178 11.157 L 20.178 11.157 L 19.316 11.157 L 19.316 9.558 L 19.316 9.558 Z " fill="rgb(51,27,0)"/><path d=" M 16.486 22.513 L 16.486 9.558 L 18.596 9.558 L 18.596 22.513 L 16.486 22.513 L 16.486 22.513 Z  M 19.316 9.558 L 20.213 9.558 L 20.213 9.558 Q 21.039 9.558 21.848 9.821 L 21.848 9.821 L 21.848 9.821 Q 22.656 10.085 23.298 10.612 L 23.298 10.612 L 23.298 10.612 Q 23.939 11.14 24.335 11.887 L 24.335 11.887 L 24.335 11.887 Q 24.73 12.634 24.73 13.565 L 24.73 13.565 L 24.73 13.565 Q 24.73 14.55 24.396 15.35 L 24.396 15.35 L 24.396 15.35 Q 24.062 16.149 23.465 16.694 L 23.465 16.694 L 23.465 16.694 Q 22.867 17.239 22.023 17.538 L 22.023 17.538 L 22.023 17.538 Q 21.18 17.837 20.16 17.837 L 20.16 17.837 L 19.316 17.837 L 19.316 16.29 L 20.529 16.29 L 20.529 16.29 Q 20.916 16.29 21.294 16.158 L 21.294 16.158 L 21.294 16.158 Q 21.672 16.026 21.988 15.728 L 21.988 15.728 L 21.988 15.728 Q 22.305 15.429 22.498 14.893 L 22.498 14.893 L 22.498 14.893 Q 22.691 14.356 22.691 13.565 L 22.691 13.565 L 22.691 13.565 Q 22.691 13.249 22.603 12.836 L 22.603 12.836 L 22.603 12.836 Q 22.516 12.423 22.243 12.045 L 22.243 12.045 L 22.243 12.045 Q 21.971 11.667 21.478 11.412 L 21.478 11.412 L 21.478 11.412 Q 20.986 11.157 20.178 11.157 L 20.178 11.157 L 19.316 11.157 L 19.316 9.558 L 19.316 9.558 Z " fill="rgb(51,27,0)" mask="url(#_mask_VRXop7q1thosEzk1eDBOa9ILUvChvYEF)" vector-effect="non-scaling-stroke" stroke-width="0.1" stroke="rgb(0,0,0)" stroke-linejoin="miter" stroke-linecap="square" stroke-miterlimit="3"/><line x1="5" y1="15.484" x2="1" y2="15.516" vector-effect="non-scaling-stroke" stroke-width="0.3" stroke="rgb(0,0,0)" stroke-linejoin="miter" stroke-linecap="square" stroke-miterlimit="3"/><line x1="26.8" y1="15.516" x2="30.8" y2="15.484" vector-effect="non-scaling-stroke" stroke-width="0.3" stroke="rgb(0,0,0)" stroke-linejoin="miter" stroke-linecap="square" stroke-miterlimit="3"/></g></svg>